<svg width="15" height="15" viewBox="0 0 15 15" fill="none" xmlns="http://www.w3.org/2000/svg">
<path d="M13.4901 1.407H11.5437V0.4695C11.5437 0.21 11.3424 0 11.0937 0C10.8451 0 10.6438 0.21 10.6438 0.4695V1.407H7.94993V0.4695C7.94993 0.21 7.74868 0 7.49999 0C7.25131 0 7.05006 0.21 7.05006 0.4695V1.407H4.35618V0.4695C4.35618 0.21 4.15493 0 3.90625 0C3.65756 0 3.45631 0.21 3.45631 0.4695V1.407H1.50994C0.848687 1.407 0.3125 1.9665 0.3125 2.6565V13.7505C0.3125 14.4405 0.848687 15 1.50994 15H13.4886C14.1499 15 14.6861 14.4405 14.6861 13.7505V2.6565C14.6875 1.965 14.1513 1.407 13.4901 1.407ZM13.7891 13.7505C13.7891 13.923 13.6554 14.0625 13.4901 14.0625H1.50994C1.34462 14.0625 1.21094 13.923 1.21094 13.7505V2.6565C1.21094 2.484 1.34462 2.3445 1.50994 2.3445H3.45631V3.282C3.45631 3.5415 3.65756 3.7515 3.90625 3.7515C4.15493 3.7515 4.35618 3.5415 4.35618 3.282V2.3445H7.05149V3.282C7.05149 3.5415 7.25274 3.7515 7.50143 3.7515C7.75012 3.7515 7.95137 3.5415 7.95137 3.282V2.3445H10.6467V3.282C10.6467 3.5415 10.8479 3.7515 11.0966 3.7515C11.3453 3.7515 11.5466 3.5415 11.5466 3.282V2.3445H13.4929C13.6582 2.3445 13.7919 2.484 13.7919 2.6565V13.7505H13.7891Z" fill="#FF6A92"/>
<path d="M5.25488 5.625H3.45801V7.032H5.25488V5.625Z" fill="#FF6A92"/>
<path d="M5.25488 7.96973H3.45801V9.37673H5.25488V7.96973Z" fill="#FF6A92"/>
<path d="M5.25488 10.3125H3.45801V11.7195H5.25488V10.3125Z" fill="#FF6A92"/>
<path d="M8.39844 10.3125H6.60156V11.7195H8.39844V10.3125Z" fill="#FF6A92"/>
<path d="M8.39844 7.96973H6.60156V9.37673H8.39844V7.96973Z" fill="#FF6A92"/>
<path d="M8.39844 5.625H6.60156V7.032H8.39844V5.625Z" fill="#FF6A92"/>
<path d="M11.5439 10.3125H9.74707V11.7195H11.5439V10.3125Z" fill="#FF6A92"/>
<path d="M11.5439 7.96973H9.74707V9.37673H11.5439V7.96973Z" fill="#FF6A92"/>
<path d="M11.5439 5.625H9.74707V7.032H11.5439V5.625Z" fill="#FF6A92"/>
</svg>
