<svg width="18" height="16" viewBox="0 0 18 16" fill="none" xmlns="http://www.w3.org/2000/svg">
<path d="M8 1L1 8L8 15M1 8H17" stroke="black" stroke-width="2" stroke-linecap="round" stroke-linejoin="round"/>
<svg width="14" height="14" viewBox="0 0 14 14" fill="none" xmlns="http://www.w3.org/2000/svg">
<path fill-rule="evenodd" clip-rule="evenodd" d="M13.1249 6.12488H3.35117L7.62117 1.85488C7.96242 1.51363 7.96242 0.953633 7.62117 0.612383C7.27992 0.271133 6.72867 0.271133 6.38742 0.612383L0.621172 6.37863C0.279922 6.71988 0.279922 7.27113 0.621172 7.61238L6.38742 13.3786C6.72867 13.7199 7.27992 13.7199 7.62117 13.3786C7.96242 13.0374 7.96242 12.4861 7.62117 12.1449L3.35117 7.87488H13.1249C13.6062 7.87488 13.9999 7.48113 13.9999 6.99988C13.9999 6.51863 13.6062 6.12488 13.1249 6.12488Z" fill="#1D1D1D"/>
</svg>
