<svg width="34" height="34" viewBox="0 0 34 34" fill="none" xmlns="http://www.w3.org/2000/svg">
<path d="M24.4375 9.5625L22.95 6.48125C22.6313 5.7375 21.8875 5.3125 21.0375 5.3125H13.0688C12.2188 5.3125 11.475 5.7375 11.1562 6.48125L9.5625 9.5625H5.3125C4.14375 9.5625 3.1875 10.5187 3.1875 11.6875V26.5625C3.1875 27.7313 4.14375 28.6875 5.3125 28.6875H28.6875C29.8563 28.6875 30.8125 27.7313 30.8125 26.5625V11.6875C30.8125 10.5187 29.8563 9.5625 28.6875 9.5625H24.4375Z" stroke="#FF6A92" stroke-miterlimit="10" stroke-linejoin="round"/>
<path d="M17 24.4375C20.5208 24.4375 23.375 21.5833 23.375 18.0625C23.375 14.5417 20.5208 11.6875 17 11.6875C13.4792 11.6875 10.625 14.5417 10.625 18.0625C10.625 21.5833 13.4792 24.4375 17 24.4375Z" stroke="#FF6A92" stroke-miterlimit="10" stroke-linejoin="round"/>
<path d="M5.3125 12.75H8.5" stroke="#FF6A92" stroke-miterlimit="10" stroke-linejoin="round"/>
</svg>
