<svg width="14" height="14" viewBox="0 0 14 14" fill="none" xmlns="http://www.w3.org/2000/svg">
<path d="M7 0.953125C5.39695 0.955357 3.8602 1.59315 2.72668 2.72668C1.59315 3.8602 0.955357 5.39695 0.953125 7C1.285 15.0212 12.715 15.0184 13.0469 7C13.0446 5.39695 12.4068 3.8602 11.2733 2.72668C10.1398 1.59315 8.60305 0.955357 7 0.953125ZM9.89687 9.30062C9.97139 9.3806 10.012 9.48637 10.01 9.59567C10.0081 9.70496 9.96383 9.80924 9.88654 9.88654C9.80924 9.96383 9.70496 10.0081 9.59567 10.01C9.48637 10.012 9.3806 9.97139 9.30062 9.89687L7 7.59625L4.69937 9.89687C4.6194 9.97139 4.51363 10.012 4.40433 10.01C4.29504 10.0081 4.19076 9.96383 4.11346 9.88654C4.03617 9.80924 3.99189 9.70496 3.98996 9.59567C3.98804 9.48637 4.02861 9.3806 4.10313 9.30062L6.40375 7L4.10313 4.69937C4.06168 4.66075 4.02843 4.61418 4.00537 4.56243C3.98232 4.51068 3.96992 4.45481 3.96892 4.39817C3.96792 4.34152 3.97834 4.28526 3.99956 4.23273C4.02077 4.1802 4.05236 4.13248 4.09242 4.09242C4.13248 4.05236 4.1802 4.02077 4.23273 3.99956C4.28526 3.97834 4.34152 3.96792 4.39817 3.96892C4.45481 3.96992 4.51068 3.98232 4.56243 4.00537C4.61418 4.02843 4.66075 4.06168 4.69937 4.10313L7 6.40375L9.30062 4.10313C9.3806 4.02861 9.48637 3.98804 9.59567 3.98996C9.70496 3.99189 9.80924 4.03617 9.88654 4.11346C9.96383 4.19076 10.0081 4.29504 10.01 4.40433C10.012 4.51363 9.97139 4.6194 9.89687 4.69937L7.59625 7L9.89687 9.30062Z" fill="black" fill-opacity="0.51"/>
</svg>
