<svg width="12" height="12" viewBox="0 0 12 12" fill="none" xmlns="http://www.w3.org/2000/svg">
<path d="M10.0837 0.166992H1.91699C1.45286 0.166992 1.00774 0.351367 0.679555 0.679555C0.351367 1.00774 0.166992 1.45286 0.166992 1.91699V7.75033C0.166992 8.21445 0.351367 8.65957 0.679555 8.98776C1.00774 9.31595 1.45286 9.50033 1.91699 9.50033H8.67783L10.8362 11.6645C10.8907 11.7186 10.9553 11.7613 11.0264 11.7904C11.0975 11.8194 11.1736 11.8341 11.2503 11.8337C11.3268 11.8356 11.4028 11.8196 11.472 11.787C11.5785 11.7432 11.6697 11.6689 11.7341 11.5734C11.7984 11.4779 11.8331 11.3655 11.8337 11.2503V1.91699C11.8337 1.45286 11.6493 1.00774 11.3211 0.679555C10.9929 0.351367 10.5478 0.166992 10.0837 0.166992ZM10.667 9.84449L9.33116 8.50283C9.27665 8.44876 9.21201 8.40599 9.14094 8.37696C9.06987 8.34793 8.99376 8.33321 8.91699 8.33366H1.91699C1.76228 8.33366 1.61391 8.2722 1.50451 8.1628C1.39512 8.05341 1.33366 7.90504 1.33366 7.75033V1.91699C1.33366 1.76228 1.39512 1.61391 1.50451 1.50451C1.61391 1.39512 1.76228 1.33366 1.91699 1.33366H10.0837C10.2384 1.33366 10.3867 1.39512 10.4961 1.50451C10.6055 1.61391 10.667 1.76228 10.667 1.91699V9.84449Z" fill="black"/>
</svg>
