<svg width="15" height="15" viewBox="0 0 15 15" fill="none" xmlns="http://www.w3.org/2000/svg">
<path d="M2.39979 0.838743L7.49979 5.93874L12.5998 0.854198C12.8029 0.64757 13.0831 0.535525 13.3725 0.545107C13.9538 0.582661 14.4168 1.04568 14.4543 1.62692C14.4571 1.90603 14.3454 2.17417 14.1452 2.36874L9.02979 7.49965L14.1452 12.6306C14.3454 12.8251 14.4571 13.0933 14.4543 13.3724C14.4168 13.9536 13.9538 14.4166 13.3725 14.4542C13.0831 14.4638 12.8029 14.3517 12.5998 14.1451L7.49979 9.06056L2.41524 14.1451C2.21217 14.3517 1.93198 14.4638 1.64252 14.4542C1.04983 14.4233 0.576153 13.9496 0.545244 13.3569C0.542462 13.0778 0.654198 12.8097 0.854335 12.6151L5.96979 7.49965L0.83888 2.36874C0.644307 2.17154 0.538289 1.90387 0.545244 1.62692C0.582798 1.04568 1.04582 0.582661 1.62706 0.545107C1.91421 0.531507 2.19409 0.637834 2.39979 0.838743Z" fill="black"/>
</svg>
