<svg width="10" height="12" viewBox="0 0 10 12" fill="none" xmlns="http://www.w3.org/2000/svg">
<path d="M8.2998 0.900463H6.94981C6.80918 0.712963 6.58652 0.600463 6.35215 0.600463H5.85059C5.68418 0.131713 5.1709 -0.114381 4.70215 0.052025C4.44668 0.143431 4.24512 0.344994 4.15371 0.600463H3.65215C3.41543 0.600463 3.19512 0.712963 3.05215 0.900463H1.70215C0.874805 0.902806 0.204492 1.57312 0.202148 2.40046V10.5005C0.204492 11.3278 0.874805 11.9981 1.70215 12.0005H8.30215C9.12949 11.9981 9.7998 11.3278 9.80215 10.5005V2.40046C9.79746 1.57312 9.12715 0.902806 8.2998 0.900463ZM4.9998 0.600463C5.16621 0.600463 5.2998 0.734056 5.2998 0.900463C5.2998 1.06687 5.16621 1.20046 4.9998 1.20046C4.8334 1.20046 4.6998 1.06687 4.6998 0.900463C4.6998 0.734056 4.8334 0.600463 4.9998 0.600463ZM4.15137 1.20046C4.31777 1.66921 4.83105 1.91531 5.2998 1.7489C5.55527 1.65749 5.75684 1.45593 5.84824 1.20046H6.3498C6.43184 1.20046 6.4998 1.26843 6.4998 1.35046V2.25046C6.4998 2.33249 6.43184 2.40046 6.3498 2.40046H3.6498C3.56777 2.40046 3.4998 2.33249 3.4998 2.25046V1.35046C3.4998 1.26843 3.56777 1.20046 3.6498 1.20046H4.15137ZM4.04824 8.86687L3.44824 9.76687C3.36387 9.89343 3.1998 9.93562 3.06387 9.86765L2.46387 9.56765C2.31621 9.49265 2.25527 9.31218 2.33027 9.16453C2.40527 9.01687 2.58574 8.95593 2.7334 9.03093L3.09668 9.21374L3.54902 8.53406C3.64043 8.39578 3.82559 8.35593 3.96387 8.44734C4.10215 8.53874 4.14199 8.7239 4.05059 8.86218C4.05059 8.86453 4.05059 8.86452 4.04824 8.86687ZM4.04824 6.76687L3.44824 7.66687C3.36387 7.79343 3.1998 7.83562 3.06387 7.76999L2.46387 7.46999C2.31621 7.39499 2.25527 7.21453 2.33027 7.06687C2.40527 6.91921 2.58574 6.85827 2.7334 6.93328L3.09668 7.11609L3.54902 6.4364C3.64043 6.29812 3.82559 6.25828 3.96387 6.34968C4.10215 6.44109 4.14199 6.62624 4.05059 6.76453C4.05059 6.76453 4.05059 6.76687 4.04824 6.76687ZM4.04824 4.66687L3.44824 5.56687C3.36387 5.69343 3.1998 5.73562 3.06387 5.66999L2.46621 5.36765C2.31855 5.29265 2.25762 5.11218 2.33262 4.96453C2.40762 4.81687 2.58809 4.75593 2.73574 4.83093L3.09902 5.01374L3.55137 4.33406C3.64277 4.19577 3.82793 4.15593 3.96621 4.24734C4.10449 4.33874 4.14434 4.5239 4.05293 4.66218C4.05059 4.66452 4.05059 4.66453 4.04824 4.66687ZM7.40215 9.60046H4.9998C4.8334 9.60046 4.6998 9.46687 4.6998 9.30046C4.6998 9.13406 4.8334 9.00046 4.9998 9.00046H7.39981C7.56621 9.00046 7.69981 9.13406 7.69981 9.30046C7.69981 9.46687 7.56621 9.60046 7.40215 9.60046ZM7.40215 7.50046H4.9998C4.8334 7.50046 4.6998 7.36687 4.6998 7.20046C4.6998 7.03406 4.8334 6.90046 4.9998 6.90046H7.39981C7.56621 6.90046 7.69981 7.03406 7.69981 7.20046C7.69981 7.36687 7.56621 7.50046 7.40215 7.50046ZM7.40215 5.40046H4.9998C4.8334 5.40046 4.6998 5.26687 4.6998 5.10046C4.6998 4.93406 4.8334 4.80046 4.9998 4.80046H7.39981C7.56621 4.80046 7.69981 4.93406 7.69981 5.10046C7.69981 5.26687 7.56621 5.40046 7.40215 5.40046Z" fill="#FF6A92"/>
</svg>
