<svg width="18" height="18" viewBox="0 0 18 18" fill="none" xmlns="http://www.w3.org/2000/svg">
<path d="M2.48365 3.07797L8.91336 4.33528L15.3431 5.59259C15.4001 5.6037 15.4592 5.59172 15.5074 5.55929C15.5556 5.52686 15.5889 5.47663 15.6001 5.41963C15.6361 5.23562 15.6355 5.04631 15.5984 4.86253C15.5612 4.67875 15.4882 4.50408 15.3835 4.34852C15.2788 4.19295 15.1445 4.05953 14.9883 3.95588C14.8321 3.85222 14.6569 3.78036 14.4729 3.7444L12.3393 3.32719L12.4514 2.75435C12.5303 2.34822 12.4449 1.92736 12.2139 1.5841C11.983 1.24084 11.6253 1.00322 11.2193 0.923359L8.0625 0.306051C7.65637 0.227111 7.23551 0.312492 6.89225 0.543461C6.54899 0.774431 6.31137 1.13213 6.23151 1.53808L6.11949 2.11091L3.98593 1.6937C3.80191 1.65769 3.61261 1.65829 3.42882 1.69545C3.24504 1.73261 3.07037 1.80562 2.91481 1.9103C2.75924 2.01497 2.62582 2.14927 2.52216 2.30552C2.41851 2.46177 2.34665 2.6369 2.31069 2.82093C2.29958 2.87795 2.31156 2.93704 2.34398 2.98523C2.37641 3.03343 2.42664 3.06678 2.48365 3.07797V3.07797ZM8.44686 1.38188L10.458 1.77515C10.7605 1.8343 11.0271 2.01119 11.1992 2.26691C11.3712 2.52263 11.4347 2.83623 11.3755 3.13872V3.13872L9.22941 2.71905L7.0833 2.29938C7.11259 2.14961 7.17109 2.00707 7.25546 1.8799C7.33984 1.75273 7.44844 1.64342 7.57506 1.55823C7.70168 1.47303 7.84384 1.4136 7.99342 1.38334C8.14301 1.35309 8.29709 1.35259 8.44686 1.38188V1.38188Z" fill="white"/>
<path d="M15.5515 6.66016H2.44856C2.39048 6.6602 2.33478 6.68329 2.2937 6.72437C2.25263 6.76544 2.22954 6.82114 2.22949 6.87923V7.71021C2.22949 7.83107 4.49957 16.2957 4.49957 16.2957C4.5323 16.6849 4.71001 17.0477 4.99752 17.3121C5.28503 17.5765 5.66136 17.7234 6.05198 17.7235H11.9481C12.3388 17.7234 12.7151 17.5765 13.0026 17.3121C13.2901 17.0477 13.4678 16.6849 13.5005 16.2957C13.5005 16.2957 15.7706 7.83107 15.7706 7.7102V6.87923C15.7706 6.82114 15.7475 6.76544 15.7064 6.72437C15.6653 6.68329 15.6096 6.6602 15.5515 6.66016ZM6.84208 15.691C6.7955 15.7035 6.7469 15.7067 6.69908 15.7004C6.65126 15.6941 6.60516 15.6785 6.5634 15.6543C6.52164 15.6302 6.48506 15.598 6.45574 15.5597C6.42642 15.5214 6.40495 15.4777 6.39255 15.4311C5.76784 13.0948 5.13257 10.7159 4.71695 9.14101C4.69211 9.04687 4.70568 8.94671 4.75468 8.86257C4.80368 8.77843 4.8841 8.7172 4.97824 8.69235C5.07239 8.6675 5.17255 8.68107 5.25669 8.73007C5.34083 8.77907 5.40205 8.85949 5.4269 8.95364C5.84232 10.5275 6.47748 12.9058 7.10189 15.2415C7.11435 15.2881 7.11751 15.3366 7.1112 15.3844C7.10489 15.4322 7.08922 15.4783 7.0651 15.5201C7.04097 15.5618 7.00886 15.5984 6.97059 15.6277C6.93232 15.657 6.88866 15.6786 6.84208 15.691ZM9.36674 15.3363C9.36655 15.4335 9.32779 15.5268 9.25895 15.5955C9.19011 15.6642 9.09683 15.7027 8.99958 15.7027C8.90233 15.7027 8.80905 15.6642 8.74021 15.5955C8.67137 15.5268 8.63261 15.4335 8.63242 15.3363V9.04732C8.63261 8.95007 8.67137 8.85686 8.74021 8.78816C8.80905 8.71946 8.90233 8.68087 8.99958 8.68087C9.09683 8.68087 9.19011 8.71946 9.25895 8.78816C9.32779 8.85686 9.36655 8.95007 9.36674 9.04732V15.3363ZM13.2831 9.14101C12.8488 10.7871 12.1595 13.3672 11.6075 15.4312C11.5951 15.4778 11.5736 15.5214 11.5443 15.5597C11.5149 15.598 11.4784 15.6302 11.4366 15.6543C11.3949 15.6785 11.3488 15.6941 11.3009 15.7005C11.2531 15.7068 11.2045 15.7036 11.1579 15.6912C11.1113 15.6787 11.0677 15.6572 11.0294 15.6278C10.9911 15.5985 10.959 15.5619 10.9349 15.5201C10.9108 15.4783 10.8951 15.4322 10.8888 15.3844C10.8825 15.3366 10.8857 15.288 10.8982 15.2414C11.45 13.1781 12.139 10.5987 12.5732 8.95364C12.5855 8.90702 12.6068 8.86329 12.6361 8.82493C12.6653 8.78657 12.7017 8.75434 12.7434 8.73008C12.7851 8.70581 12.8311 8.68999 12.8789 8.68352C12.9266 8.67705 12.9752 8.68005 13.0218 8.69235C13.0685 8.70466 13.1122 8.72602 13.1505 8.75523C13.1889 8.78443 13.2211 8.82091 13.2454 8.86257C13.2697 8.90423 13.2855 8.95026 13.292 8.99804C13.2984 9.04581 13.2954 9.0944 13.2831 9.14101Z" fill="white"/>
</svg>
