<svg width="9" height="7" viewBox="0 0 9 7" fill="none" xmlns="http://www.w3.org/2000/svg">
<path d="M4.19193 6.33838C4.22633 6.38834 4.27236 6.42919 4.32606 6.45742C4.37976 6.48564 4.43951 6.50039 4.50017 6.50039C4.56084 6.50039 4.62059 6.48564 4.67429 6.45742C4.72799 6.42919 4.77402 6.38834 4.80842 6.33838L8.18342 1.46338C8.22249 1.40715 8.2454 1.34129 8.24966 1.27295C8.25393 1.20462 8.23938 1.13642 8.20761 1.07577C8.17583 1.01512 8.12805 0.964343 8.06944 0.928947C8.01083 0.893551 7.94364 0.874893 7.87517 0.875H1.12517C1.05687 0.875283 0.989926 0.89418 0.931555 0.929662C0.873183 0.965143 0.825588 1.01586 0.793888 1.07637C0.762188 1.13688 0.747582 1.20489 0.751641 1.27307C0.7557 1.34126 0.77827 1.40706 0.816925 1.46338L4.19193 6.33838Z" fill="black"/>
</svg>
