<svg width="27" height="26" viewBox="0 0 27 26" fill="none" xmlns="http://www.w3.org/2000/svg">
<path d="M26.3468 5.32818C25.9278 4.28552 25.3238 3.34067 24.5684 2.54652C23.8125 1.75 22.9213 1.11702 21.9431 0.682001C20.9289 0.229118 19.841 -0.0026936 18.7428 2.36135e-05C17.202 2.36135e-05 15.6987 0.453555 14.3923 1.31023C14.0797 1.51516 13.7828 1.74024 13.5015 1.98549C13.2203 1.74024 12.9234 1.51516 12.6108 1.31023C11.3044 0.453555 9.80112 2.36135e-05 8.26032 2.36135e-05C7.15082 2.36135e-05 6.0757 0.228469 5.05995 0.682001C4.07859 1.11874 3.19412 1.74696 2.43465 2.54652C1.67831 3.33977 1.07412 4.28485 0.656325 5.32818C0.2219 6.4133 0 7.56561 0 8.75151C0 9.87022 0.212524 11.036 0.634448 12.2219C0.987613 13.2129 1.49392 14.2409 2.14087 15.279C3.16599 16.9218 4.57552 18.6351 6.32572 20.372C9.22606 23.2511 12.0983 25.2399 12.2201 25.3205L12.9609 25.8312C13.289 26.0563 13.7109 26.0563 14.0391 25.8312L14.7798 25.3205C14.9017 25.2366 17.7708 23.2511 20.6742 20.372C22.4244 18.6351 23.834 16.9218 24.8591 15.279C25.506 14.2409 26.0155 13.2129 26.3655 12.2219C26.7874 11.036 27 9.87022 27 8.75151C27.0031 7.56561 26.7812 6.4133 26.3468 5.32818Z" fill="#42B16E"/>
</svg>
