<svg width="13" height="11" viewBox="0 0 13 11" fill="none" xmlns="http://www.w3.org/2000/svg">
<path d="M11.7218 1.02462C11.3703 0.679111 10.9503 0.411089 10.4889 0.237834C10.0275 0.0645782 9.53495 -0.0100654 9.04293 0.018715C8.55091 0.0474954 8.07038 0.179061 7.63233 0.40493C7.19427 0.630799 6.8084 0.945958 6.49961 1.33009C6.19081 0.945958 5.80495 0.630799 5.36689 0.40493C4.92884 0.179061 4.44831 0.0474954 3.95629 0.018715C3.46427 -0.0100654 2.97168 0.0645782 2.51028 0.237834C2.04887 0.411089 1.6289 0.679111 1.27742 1.02462C0.626979 1.6769 0.261719 2.56049 0.261719 3.48165C0.261719 4.40282 0.626979 5.2864 1.27742 5.93868L6.21805 10.8767C6.25486 10.9139 6.2987 10.9435 6.34703 10.9637C6.39537 10.9839 6.44723 10.9943 6.49961 10.9943C6.55199 10.9943 6.60385 10.9839 6.65218 10.9637C6.70052 10.9435 6.74436 10.9139 6.78117 10.8767L11.7218 5.93868C12.369 5.2847 12.7321 4.40176 12.7321 3.48165C12.7321 2.56155 12.369 1.67861 11.7218 1.02462ZM11.1587 5.37556L6.49961 10.032L1.84055 5.37556C1.33825 4.87326 1.05606 4.19201 1.05606 3.48165C1.05606 2.7713 1.33825 2.09004 1.84055 1.58775C2.34284 1.08545 3.0241 0.803264 3.73445 0.803264C4.44481 0.803264 5.12606 1.08545 5.62836 1.58775L6.21805 2.17743C6.29309 2.25141 6.39423 2.29287 6.49961 2.29287C6.60498 2.29287 6.70613 2.25141 6.78117 2.17743L7.37086 1.58775C9.97664 -0.829442 13.5732 2.76978 11.1587 5.37556Z" fill="black"/>
</svg>
