<svg width="12" height="14" viewBox="0 0 12 14" fill="none" xmlns="http://www.w3.org/2000/svg">
<path fill-rule="evenodd" clip-rule="evenodd" d="M6 0C3.06667 0 0 2.06957 0 5.47826C0 8.70435 5.33333 13.6348 5.53333 13.8174C5.66667 13.9391 5.8 14 6 14C6.2 14 6.33333 13.9391 6.46667 13.8174C6.66667 13.6348 12 8.70435 12 5.47826C12 2.06957 8.93333 0 6 0ZM6.00028 7.46673C4.86695 7.46673 4.00028 6.65784 4.00028 5.60007C4.00028 4.54229 4.86695 3.7334 6.00028 3.7334C7.13361 3.7334 8.00028 4.54229 8.00028 5.60007C8.00028 6.65784 7.13361 7.46673 6.00028 7.46673Z" fill="#F4F4F4"/>
</svg>
