<svg width="15" height="22" viewBox="0 0 15 22" fill="none" xmlns="http://www.w3.org/2000/svg">
<path fill-rule="evenodd" clip-rule="evenodd" d="M7.5 0C3.35357 0 0 3.443 0 7.7C0 13.475 7.5 22 7.5 22C7.5 22 15 13.475 15 7.7C15 3.443 11.6464 0 7.5 0ZM2.14286 7.7C2.14286 4.664 4.54286 2.2 7.5 2.2C10.4571 2.2 12.8571 4.664 12.8571 7.7C12.8571 10.868 9.77143 15.609 7.5 18.568C5.27143 15.631 2.14286 10.835 2.14286 7.7Z" fill="black"/>
<path d="M7.49986 10.4502C8.97919 10.4502 10.1784 9.21898 10.1784 7.7002C10.1784 6.18141 8.97919 4.9502 7.49986 4.9502C6.02053 4.9502 4.82129 6.18141 4.82129 7.7002C4.82129 9.21898 6.02053 10.4502 7.49986 10.4502Z" fill="black"/>
</svg>
