<svg width="12" height="14" viewBox="0 0 12 14" fill="none" xmlns="http://www.w3.org/2000/svg">
<path d="M4.56597 9.36622C5.52575 9.28888 6.48994 9.28888 7.44972 9.36622C7.97237 9.39669 8.49254 9.46207 9.00695 9.56195C10.1201 9.78734 10.8468 10.1551 11.1582 10.7482C11.3921 11.2111 11.3921 11.7622 11.1582 12.2251C10.8468 12.8182 10.1489 13.2096 8.99541 13.4113C8.48141 13.5149 7.96112 13.5823 7.43818 13.613C6.95371 13.6663 6.46924 13.6663 5.97901 13.6663H5.09658C4.91202 13.6426 4.73323 13.6308 4.5602 13.6308C4.03724 13.6039 3.51684 13.5384 3.00297 13.435C1.88985 13.2215 1.16314 12.8419 0.851695 12.2488C0.731466 12.019 0.668082 11.7624 0.667062 11.5015C0.664629 11.239 0.726097 10.98 0.845928 10.7482C1.15161 10.1551 1.87831 9.76954 3.00297 9.56195C3.5191 9.46064 4.04128 9.39525 4.56597 9.36622ZM6.00208 0.333008C7.93556 0.333008 9.50295 1.94489 9.50295 3.93325C9.50295 5.9216 7.93556 7.53348 6.00208 7.53348C4.0686 7.53348 2.5012 5.9216 2.5012 3.93325C2.5012 1.94489 4.0686 0.333008 6.00208 0.333008Z" fill="black"/>
</svg>
