<svg width="50" height="50" viewBox="0 0 50 50" fill="none" xmlns="http://www.w3.org/2000/svg">
<path d="M49.627 25.3731C49.627 30.2438 48.1827 35.0052 45.4766 39.0551C42.7706 43.105 38.9244 46.2615 34.4244 48.1255C29.9244 49.9894 24.9727 50.4771 20.1956 49.5269C15.4184 48.5766 11.0303 46.2311 7.58613 42.787C4.14199 39.3428 1.7965 34.9547 0.846259 30.1776C-0.103979 25.4004 0.383717 20.4487 2.24768 15.9487C4.11163 11.4487 7.26814 7.60254 11.318 4.89649C15.3679 2.19044 20.1293 0.746094 25 0.746094C31.5315 0.746094 37.7955 3.34071 42.414 7.95917C47.0324 12.5776 49.627 18.8416 49.627 25.3731Z" fill="#005FD2"/>
<path d="M49.4258 28.5312C45.4974 24.5924 38.4373 17.5184 38.4373 17.5184C37.9657 17.025 37.4184 16.6101 36.8159 16.2893L32.8302 12.2967C32.2601 11.7018 31.5828 11.22 30.8338 10.8767C29.94 10.4711 28.9675 10.2683 27.986 10.283H17.9236C17.6219 10.2831 17.3291 10.3852 17.0928 10.5727C16.8564 10.7602 16.6904 11.0221 16.6217 11.3158L11.3366 33.8675C11.2823 34.0967 11.2898 34.3362 11.3583 34.5615C11.4268 34.7869 11.5537 34.9901 11.7263 35.1504L26.474 49.9571C32.1942 49.6133 37.6156 47.2859 41.8047 43.3756C45.9938 39.4653 48.6886 34.2169 49.4249 28.5338L49.4258 28.5312Z" fill="#003D8D"/>
<path d="M22.2303 16.5377C22.2992 16.2441 22.4653 15.9823 22.7016 15.795C22.9379 15.6077 23.2307 15.5057 23.5322 15.5056H33.5929C34.5744 15.4908 35.5469 15.6935 36.4407 16.0993C37.2535 16.4704 37.9808 17.0056 38.5768 17.6712C39.156 18.3265 39.6065 19.085 39.9048 19.9071C40.2108 20.7342 40.3672 21.6092 40.3666 22.4911C40.3563 23.7215 40.067 24.9336 39.5203 26.0359C38.9542 27.2139 38.1783 28.2789 37.2306 29.1788C36.2491 30.1135 35.1174 30.8764 33.8828 31.4356C32.6089 32.0183 31.2233 32.3163 29.8224 32.3087H25.4739L23.6442 39.7204C23.5725 40.0112 23.4052 40.2696 23.1691 40.454C22.933 40.6385 22.6418 40.7384 22.3422 40.7376H18.2445C18.0429 40.7376 17.8439 40.692 17.6625 40.6042C17.481 40.5164 17.3216 40.3888 17.1964 40.2308C17.0712 40.0727 16.9834 39.8885 16.9394 39.6917C16.8955 39.495 16.8965 39.2908 16.9426 39.0945L22.2303 16.5377Z" fill="#78B9EB"/>
<path d="M39.9051 19.9065C39.6067 19.0845 39.1561 18.326 38.5771 17.6706C37.9812 17.0055 37.2542 16.4707 36.4419 16.0996C35.8469 15.8238 35.2122 15.6437 34.561 15.5658C34.2401 15.525 33.9168 15.505 33.5932 15.5059H24.8076V35.0006L25.4734 32.3046H29.8219C31.2224 32.3126 32.6078 32.0149 33.8814 31.4323C35.1161 30.8728 36.248 30.11 37.2301 29.1756C38.1779 28.2754 38.9538 27.2101 39.5198 26.0318C40.0664 24.9298 40.3558 23.718 40.366 22.4879C40.3666 21.6057 40.2102 20.7305 39.9043 19.903L39.9051 19.9065Z" fill="#5698E1"/>
<path d="M16.6226 11.3139C16.6914 11.0201 16.8574 10.7582 17.0937 10.5707C17.3301 10.3832 17.6229 10.2811 17.9246 10.281H27.9861C28.9676 10.2664 29.9401 10.4691 30.834 10.8747C31.6467 11.2459 32.3739 11.7811 32.97 12.4466C33.5491 13.1017 33.9996 13.8599 34.298 14.6816C34.604 15.5091 34.7603 16.3843 34.7598 17.2665C34.7497 18.4969 34.4603 19.709 33.9135 20.8113C33.3474 21.9892 32.5715 23.0543 31.6238 23.9542C30.6424 24.8889 29.5107 25.6518 28.276 26.2109C27.0025 26.7939 25.6171 27.0919 24.2165 27.0841H19.7595L18.0235 34.4801C17.9547 34.7737 17.7886 35.0354 17.5522 35.2227C17.3159 35.4101 17.0232 35.5121 16.7216 35.5121H12.6352C12.4336 35.5121 12.2346 35.4665 12.0531 35.3787C11.8716 35.2909 11.7123 35.1633 11.5871 35.0053C11.4619 34.8472 11.374 34.663 11.33 34.4662C11.2861 34.2695 11.2872 34.0653 11.3332 33.869L16.6226 11.3139Z" fill="white"/>
<path d="M34.5619 15.5651C34.4931 15.2653 34.4061 14.9699 34.3015 14.6807C34.0031 13.8589 33.5526 13.1006 32.9735 12.4456C32.3777 11.7801 31.6508 11.2449 30.8383 10.8737C29.9442 10.4681 28.9713 10.2653 27.9896 10.28H24.8076V27.0606C26.0063 26.9959 27.1821 26.7058 28.2734 26.2056C29.5085 25.6468 30.6406 24.8839 31.6221 23.9489C32.5697 23.0489 33.3456 21.9839 33.9118 20.8059C34.4584 19.7036 34.7477 18.4915 34.758 17.2611C34.7588 16.6886 34.6927 16.118 34.561 15.5608L34.5619 15.5651Z" fill="#FFF5CB"/>
</svg>
