<svg width="24" height="24" viewBox="0 0 24 24" fill="none" xmlns="http://www.w3.org/2000/svg">
<g clip-path="url(#clip0_1_21290)">
<path d="M21 0H3C2.20435 0 1.44129 0.31607 0.87868 0.87868C0.31607 1.44129 0 2.20435 0 3L0 21C0 21.7956 0.31607 22.5587 0.87868 23.1213C1.44129 23.6839 2.20435 24 3 24H21C21.7956 24 22.5587 23.6839 23.1213 23.1213C23.6839 22.5587 24 21.7956 24 21V3C24 2.20435 23.6839 1.44129 23.1213 0.87868C22.5587 0.31607 21.7956 0 21 0V0ZM3 2H21C21.2652 2 21.5196 2.10536 21.7071 2.29289C21.8946 2.48043 22 2.73478 22 3V15.86L14.18 9.35C13.2843 8.60651 12.1597 8.19458 10.9957 8.18365C9.83167 8.17272 8.69949 8.56346 7.79 9.29L2 13.92V3C2 2.73478 2.10536 2.48043 2.29289 2.29289C2.48043 2.10536 2.73478 2 3 2ZM21 22H3C2.73478 22 2.48043 21.8946 2.29289 21.7071C2.10536 21.5196 2 21.2652 2 21V16.48L9 10.85C9.54551 10.4066 10.227 10.1646 10.93 10.1646C11.633 10.1646 12.3145 10.4066 12.86 10.85L22 18.47V21C22 21.2652 21.8946 21.5196 21.7071 21.7071C21.5196 21.8946 21.2652 22 21 22Z" fill="black"/>
<path d="M18 9C18.5933 9 19.1734 8.82405 19.6667 8.49441C20.1601 8.16477 20.5446 7.69623 20.7716 7.14805C20.9987 6.59987 21.0581 5.99667 20.9424 5.41473C20.8266 4.83279 20.5409 4.29824 20.1213 3.87868C19.7018 3.45912 19.1672 3.1734 18.5853 3.05765C18.0033 2.94189 17.4001 3.0013 16.8519 3.22836C16.3038 3.45543 15.8352 3.83994 15.5056 4.33329C15.1759 4.82664 15 5.40666 15 6C15 6.79565 15.3161 7.55871 15.8787 8.12132C16.4413 8.68393 17.2044 9 18 9ZM18 5C18.1978 5 18.3911 5.05865 18.5556 5.16853C18.72 5.27841 18.8482 5.43459 18.9239 5.61732C18.9996 5.80004 19.0194 6.00111 18.9808 6.19509C18.9422 6.38907 18.847 6.56726 18.7071 6.70711C18.5673 6.84696 18.3891 6.9422 18.1951 6.98079C18.0011 7.01937 17.8 6.99957 17.6173 6.92388C17.4346 6.84819 17.2784 6.72002 17.1685 6.55557C17.0586 6.39112 17 6.19778 17 6C17 5.73478 17.1054 5.48043 17.2929 5.29289C17.4804 5.10536 17.7348 5 18 5Z" fill="black"/>
</g>
<defs>
<clipPath id="clip0_1_21290">
<rect width="24" height="24" fill="white"/>
</clipPath>
</defs>
</svg>
