<svg width="16" height="16" viewBox="0 0 16 16" fill="none" xmlns="http://www.w3.org/2000/svg">
<path d="M13.0003 10.75L12.5003 10C11.7003 8.8 11.3003 7.35 11.3003 5.9C11.3003 4.35 10.3003 3.05 8.95034 2.65C8.80034 2.25 8.40034 2 8.00034 2C7.60034 2 7.20034 2.25 7.05034 2.65C5.70034 3.05 4.70034 4.35 4.70034 5.9C4.70034 7.35 4.30034 8.8 3.50034 10L3.00034 10.75C2.80034 11.1 3.00034 11.5 3.40034 11.5H12.5503C12.9503 11.5 13.2003 11.05 13.0003 10.75Z" stroke="#FF6A92" stroke-width="2" stroke-miterlimit="10" stroke-linejoin="round"/>
<path d="M9.5 13C9.5 13.85 8.85 14.5 8 14.5C7.15 14.5 6.5 13.85 6.5 13" stroke="#FF6A92" stroke-width="2" stroke-miterlimit="10" stroke-linejoin="round"/>
</svg>
