<svg width="12" height="12" viewBox="0 0 12 12" fill="none" xmlns="http://www.w3.org/2000/svg">
<path d="M11.1004 7.2L10.5004 6.85C9.85041 6.45 9.85041 5.5 10.5004 5.1L11.1004 4.75C11.6004 4.45 11.7504 3.85 11.4504 3.4L10.9504 2.55C10.6504 2.05 10.0504 1.9 9.60041 2.2L9.00041 2.55C8.35041 2.95 7.50041 2.45 7.50041 1.7V1C7.50041 0.45 7.05041 0 6.50041 0H5.50041C4.95041 0 4.50041 0.45 4.50041 1V1.65C4.50041 2.4 3.65041 2.9 3.00041 2.5L2.40041 2.2C1.90041 1.9 1.30041 2.1 1.05041 2.55L0.550411 3.4C0.300411 3.9 0.450411 4.5 0.90041 4.8L1.50041 5.15C2.15041 5.5 2.15041 6.5 1.50041 6.85L0.90041 7.2C0.400411 7.5 0.250411 8.1 0.550411 8.55L1.05041 9.4C1.35041 9.9 1.95041 10.05 2.40041 9.75L3.00041 9.45C3.65041 9.05 4.50041 9.55 4.50041 10.3V11C4.50041 11.55 4.95041 12 5.50041 12H6.50041C7.05041 12 7.50041 11.55 7.50041 11V10.35C7.50041 9.6 8.35041 9.1 9.00041 9.5L9.60041 9.85C10.1004 10.15 10.7004 9.95 10.9504 9.5L11.4504 8.65C11.7004 8.1 11.5504 7.5 11.1004 7.2ZM6.00041 8C4.90041 8 4.00041 7.1 4.00041 6C4.00041 4.9 4.90041 4 6.00041 4C7.10041 4 8.00041 4.9 8.00041 6C8.00041 7.1 7.10041 8 6.00041 8Z" fill="#FF6A92"/>
</svg>
