<svg width="27" height="25" viewBox="0 0 27 25" fill="none" xmlns="http://www.w3.org/2000/svg">
<path fill-rule="evenodd" clip-rule="evenodd" d="M12.2721 1.25082C12.6884 -0.0419454 14.5118 -0.0419338 14.9281 1.25082L17.302 8.62167H24.9786C26.3469 8.62167 26.8771 10.3637 25.802 11.1519L19.5845 15.7092L21.9604 23.0863C22.367 24.3488 20.9253 25.4652 19.8089 24.6469L13.6001 20.0958L7.39126 24.6469C6.27482 25.4652 4.83318 24.3488 5.23976 23.0863L7.61562 15.7092L1.39819 11.1519C0.323029 10.3637 0.853249 8.62167 2.22162 8.62167H9.89818L12.2721 1.25082ZM13.6001 3.08051L11.54 9.47708C11.3552 10.0508 10.8219 10.4467 10.212 10.4467H3.52311L8.94143 14.4183C9.4299 14.7763 9.63042 15.4065 9.44604 15.9789L7.38071 22.3919L12.7767 18.4366C13.2671 18.0772 13.933 18.0772 14.4235 18.4366L19.8195 22.3919L17.7541 15.9789C17.5697 15.4065 17.7703 14.7763 18.2587 14.4183L23.6771 10.4467H16.9882C16.3783 10.4467 15.8449 10.0508 15.6602 9.47708L13.6001 3.08051Z" fill="black"/>
</svg>
