<svg width="40" height="34" viewBox="0 0 40 34" fill="none" xmlns="http://www.w3.org/2000/svg">
<path fill-rule="evenodd" clip-rule="evenodd" d="M16.9077 1.11278C16.4753 0.417651 15.5692 0.142184 14.7982 0.471467C14.0271 0.800734 13.6345 1.63077 13.884 2.40395L19.8353 20.8409L18.2402 22.6878C17.5358 22.4063 16.763 22.2509 15.9524 22.2509C12.665 22.2509 10 24.8063 10 27.9586C10 31.1109 12.665 33.6664 15.9524 33.6664C19.2398 33.6664 21.9048 31.1109 21.9048 27.9586C21.9048 26.7446 21.5095 25.6191 20.8355 24.6939L23.4588 21.6569L25 20.1939L26.5412 21.6569L29.1645 24.6939C28.4905 25.6191 28.0952 26.7446 28.0952 27.9586C28.0952 31.1109 30.7602 33.6664 34.0477 33.6664C37.335 33.6664 40 31.1109 40 27.9586C40 24.8063 37.335 22.2509 34.0477 22.2509C33.237 22.2509 32.4642 22.4063 31.7598 22.6878L30.1647 20.8409L36.116 2.40395C36.3655 1.63077 35.9728 0.800734 35.2018 0.471467C34.4308 0.142184 33.5247 0.417651 33.0923 1.11278L25 14.1238L16.9077 1.11278ZM36.6667 27.9586C36.6667 26.5716 35.494 25.4473 34.0477 25.4473C32.6012 25.4473 31.4285 26.5716 31.4285 27.9586C31.4285 29.3456 32.6012 30.4701 34.0477 30.4701C35.494 30.4701 36.6667 29.3456 36.6667 27.9586ZM15.9524 25.4473C14.5059 25.4473 13.3333 26.5716 13.3333 27.9586C13.3333 29.3456 14.5059 30.4701 15.9524 30.4701C17.3988 30.4701 18.5715 29.3456 18.5715 27.9586C18.5715 26.5716 17.3988 25.4473 15.9524 25.4473Z" fill="#FF6A92"/>
<path d="M5 29.1005H1.66667C0.746192 29.1005 0 29.816 0 30.6985C0 31.5812 0.746192 32.2967 1.66667 32.2967H6.66667C7.58715 32.2967 8.33333 31.5812 8.33333 30.6985V1.93166C8.33333 1.82133 8.32168 1.71361 8.29949 1.60958C8.19347 1.11278 7.84707 0.699963 7.3819 0.487729C7.16517 0.388829 6.92267 0.333496 6.66667 0.333496H1.66667C0.746192 0.333496 0 1.04901 0 1.93165C0 2.8143 0.746192 3.52981 1.66667 3.52981H5V5.12798H1.66667C0.746192 5.12798 0 5.84351 0 6.72614C0 7.60879 0.746192 8.32431 1.66667 8.32431H5V9.92248H1.66667C0.746192 9.92248 0 10.638 0 11.5206C0 12.4033 0.746192 13.1188 1.66667 13.1188H5V14.717H1.66667C0.746192 14.717 0 15.4325 0 16.3152C0 17.1978 0.746192 17.9133 1.66667 17.9133H5V19.5115H1.66667C0.746192 19.5115 0 20.227 0 21.1097C0 21.9922 0.746192 22.7078 1.66667 22.7078H5V24.306H1.66667C0.746192 24.306 0 25.0215 0 25.9042C0 26.7867 0.746192 27.5023 1.66667 27.5023H5V29.1005Z" fill="#FF6A92"/>
</svg>
