<svg width="12" height="14" viewBox="0 0 12 14" fill="none" xmlns="http://www.w3.org/2000/svg">
<path fill-rule="evenodd" clip-rule="evenodd" d="M10 9.856C9.49333 9.856 9.04 10.066 8.69333 10.395L3.94 7.49C3.97333 7.329 4 7.168 4 7C4 6.832 3.97333 6.671 3.94 6.51L8.64 3.633C9 3.983 9.47333 4.2 10 4.2C11.1067 4.2 12 3.262 12 2.1C12 0.938 11.1067 0 10 0C8.89333 0 8 0.938 8 2.1C8 2.268 8.02667 2.429 8.06 2.59L3.36 5.467C3 5.117 2.52667 4.9 2 4.9C0.893333 4.9 0 5.838 0 7C0 8.162 0.893333 9.1 2 9.1C2.52667 9.1 3 8.883 3.36 8.533L8.10667 11.445C8.07333 11.592 8.05333 11.746 8.05333 11.9C8.05333 13.027 8.92667 13.944 10 13.944C11.0733 13.944 11.9467 13.027 11.9467 11.9C11.9467 10.773 11.0733 9.856 10 9.856Z" fill="#1D1D1D"/>
</svg>
