<svg width="13" height="12" viewBox="0 0 13 12" fill="none" xmlns="http://www.w3.org/2000/svg">
<path d="M6.7466 0.369422L8.13445 3.18158C8.23096 3.37716 8.41757 3.51269 8.63343 3.544L11.7369 3.99499C12.2806 4.07404 12.4974 4.74192 12.1042 5.12513L9.85855 7.31408C9.70249 7.46629 9.63113 7.68574 9.66809 7.90058L10.1981 10.9915C10.291 11.5328 9.72277 11.9456 9.23662 11.6902L6.46092 10.231C6.2679 10.1296 6.03714 10.1296 5.84412 10.231L3.06842 11.6902C2.58227 11.9458 2.01399 11.5328 2.1069 10.9915L2.63694 7.90058C2.6739 7.68574 2.60255 7.46629 2.44649 7.31408L0.200822 5.12513C-0.192407 4.74166 0.0244846 4.07379 0.568126 3.99499L3.67161 3.544C3.88747 3.51269 4.07408 3.37716 4.17059 3.18158L5.55844 0.369422C5.80126 -0.123141 6.50352 -0.123141 6.7466 0.369422Z" fill="#ED8A19"/>
</svg>
