<svg width="10" height="12" viewBox="0 0 10 12" fill="none" xmlns="http://www.w3.org/2000/svg">
<path d="M3.74559 8.07008C4.58539 8.0024 5.42906 8.0024 6.26887 8.07008C6.72619 8.09674 7.18134 8.15395 7.63144 8.24134C8.60543 8.43855 9.2413 8.76032 9.51381 9.2793C9.71848 9.68434 9.71848 10.1665 9.51381 10.5716C9.2413 11.0905 8.63066 11.4331 7.62135 11.6095C7.1716 11.7002 6.71635 11.7592 6.25878 11.786C5.83487 11.8327 5.41095 11.8327 4.982 11.8327H4.20987C4.04838 11.8119 3.89194 11.8015 3.74054 11.8015C3.28295 11.778 2.8276 11.7208 2.37797 11.6303C1.40398 11.4434 0.768114 11.1113 0.4956 10.5923C0.390399 10.3913 0.334938 10.1667 0.334045 9.93841C0.331917 9.70872 0.385701 9.48212 0.490553 9.2793C0.758021 8.76032 1.39389 8.42299 2.37797 8.24134C2.82958 8.1527 3.28649 8.09548 3.74559 8.07008ZM5.00218 0.166016C6.69398 0.166016 8.06545 1.57641 8.06545 3.31622C8.06545 5.05604 6.69398 6.46643 5.00218 6.46643C3.31039 6.46643 1.93892 5.05604 1.93892 3.31622C1.93892 1.57641 3.31039 0.166016 5.00218 0.166016Z" fill="#FF6A92"/>
</svg>
