<svg width="51" height="51" viewBox="0 0 51 51" fill="none" xmlns="http://www.w3.org/2000/svg">
<path d="M25.373 49.9999C38.9741 49.9999 49.9999 38.9741 49.9999 25.373C49.9999 11.7719 38.9741 0.746094 25.373 0.746094C11.7719 0.746094 0.746094 11.7719 0.746094 25.373C0.746094 38.9741 11.7719 49.9999 25.373 49.9999Z" fill="white"/>
<path d="M25.3726 49.5655C38.734 49.5655 49.5655 38.734 49.5655 25.3726C49.5655 12.0112 38.734 1.17969 25.3726 1.17969C12.0112 1.17969 1.17969 12.0112 1.17969 25.3726C1.17969 38.734 12.0112 49.5655 25.3726 49.5655Z" stroke="black"/>
<path d="M21.7067 19.6807L19.6418 32.5327H22.9401L25.0041 19.6807H21.7067ZM31.6641 24.9163C30.5105 24.3469 29.8032 23.9615 29.8032 23.3791C29.817 22.8496 30.4012 22.3063 31.7049 22.3063C32.5495 22.282 33.3891 22.4444 34.1638 22.7819L34.4633 22.9156L34.912 20.2249C33.9646 19.87 32.9605 19.6905 31.9488 19.6954C28.6887 19.6954 26.3938 21.3906 26.379 23.8148C26.3521 25.6037 28.0221 26.5923 29.2728 27.1921C30.5496 27.7997 30.9845 28.1989 30.9845 28.7414C30.9706 29.5746 29.9516 29.9566 29.0012 29.9566C27.9305 29.9861 26.8684 29.759 25.9034 29.2943L25.4694 29.0964L25.0076 31.8913C26.1842 32.3353 27.432 32.5604 28.6895 32.5553C32.1536 32.5553 34.4086 30.8862 34.4364 28.3022C34.4485 26.8883 33.5675 25.8033 31.6641 24.9163ZM43.3756 19.7206H40.8212C40.4595 19.6761 40.0934 19.7537 39.7808 19.941C39.4682 20.1282 39.2271 20.4145 39.0956 20.7543L34.1959 32.5327H37.66L38.6148 29.9826H42.4911L42.9859 32.5431H46.0411L43.3756 19.7206ZM39.5713 27.4091C39.6381 27.4151 40.901 23.2428 40.901 23.2428L41.907 27.4091H39.5713ZM16.8834 19.6841L13.6494 28.4159L13.297 26.6939C12.4787 24.4462 10.8505 22.5852 8.73145 21.4756L11.693 32.5231H15.1874L20.3779 19.685H16.8834V19.6841Z" fill="#2394BC"/>
<path d="M11.8349 21.3355C11.7203 20.8556 11.4446 20.4295 11.0538 20.1283C10.663 19.8271 10.1808 19.6689 9.68753 19.6803H4.56564L4.5127 19.9181C8.50536 20.9032 11.8618 23.9342 12.9502 26.7855L11.8349 21.3355Z" fill="#EFC75E"/>
</svg>
