<svg width="38" height="34" viewBox="0 0 38 34" fill="none" xmlns="http://www.w3.org/2000/svg">
<path fill-rule="evenodd" clip-rule="evenodd" d="M14.431 24.3826V9.61589C14.431 7.58547 16.1602 5.92422 18.3169 5.92422H35.8038V4.07839C35.8038 2.04797 34.0551 0.386719 31.9178 0.386719H4.71604C2.55933 0.386719 0.830078 2.04797 0.830078 4.07839V29.9201C0.830078 31.9505 2.55933 33.6117 4.71604 33.6117H31.9178C34.0551 33.6117 35.8038 31.9505 35.8038 29.9201V28.0742H18.3169C16.1602 28.0742 14.431 26.413 14.431 24.3826ZM20.2599 9.61589C19.1913 9.61589 18.3169 10.4465 18.3169 11.4617V22.5367C18.3169 23.5519 19.1913 24.3826 20.2599 24.3826H37.7468V9.61589H20.2599ZM26.0889 19.768C24.4762 19.768 23.1744 18.5313 23.1744 16.9992C23.1744 15.4672 24.4762 14.2305 26.0889 14.2305C27.7015 14.2305 29.0033 15.4672 29.0033 16.9992C29.0033 18.5313 27.7015 19.768 26.0889 19.768Z" fill="#FF6A92"/>
</svg>
