<svg width="10" height="9" viewBox="0 0 10 9" fill="none" xmlns="http://www.w3.org/2000/svg">
<path fill-rule="evenodd" clip-rule="evenodd" d="M3.68421 6.5V2.5C3.68421 1.95 4.15263 1.5 4.73684 1.5H9.47368V1C9.47368 0.45 9 0 8.42105 0H1.05263C0.468421 0 0 0.45 0 1V8C0 8.55 0.468421 9 1.05263 9H8.42105C9 9 9.47368 8.55 9.47368 8V7.5H4.73684C4.15263 7.5 3.68421 7.05 3.68421 6.5ZM5.26316 2.5C4.97368 2.5 4.73684 2.725 4.73684 3V6C4.73684 6.275 4.97368 6.5 5.26316 6.5H10V2.5H5.26316ZM6.84211 5.25C6.40526 5.25 6.05263 4.915 6.05263 4.5C6.05263 4.085 6.40526 3.75 6.84211 3.75C7.27895 3.75 7.63158 4.085 7.63158 4.5C7.63158 4.915 7.27895 5.25 6.84211 5.25Z" fill="#FF6A92"/>
</svg>
